<?xml version="1.0" encoding="utf-8"?>
<!-- Generator: Adobe Illustrator 26.5.0, SVG Export Plug-In . SVG Version: 6.00 Build 0)  -->
<svg version="1.1" id="a" xmlns="http://www.w3.org/2000/svg" xmlns:xlink="http://www.w3.org/1999/xlink" x="0px" y="0px"
	 viewBox="0 0 16 16">
<path d="M16,8c0,4.42-3.58,8-8,8s-8-3.58-8-8s3.58-8,8-8S16,3.58,16,8z M4.83,4.34v7.12c-0.01,0.53-0.26,0.79-0.74,0.79
	c-0.19,0-0.36-0.02-0.52-0.05v1.15c0.25,0.07,0.51,0.1,0.77,0.1c0.64,0,1.12-0.17,1.45-0.52c0.33-0.35,0.49-0.86,0.49-1.52V4.34
	H4.83z M4.92,3.21c0.14,0.15,0.35,0.22,0.61,0.22c0.26,0,0.47-0.07,0.61-0.22c0.14-0.15,0.22-0.33,0.22-0.55S6.29,2.25,6.14,2.1
	C6,1.95,5.79,1.88,5.53,1.88S5.06,1.95,4.92,2.1S4.71,2.43,4.71,2.66C4.71,2.88,4.78,3.06,4.92,3.21z M13.21,10.83v-0.1
	c-0.16-0.35-0.25-0.81-0.25-1.4V6.41c-0.01-0.69-0.24-1.23-0.7-1.61c-0.45-0.38-1.06-0.57-1.82-0.57c-0.5,0-0.95,0.09-1.36,0.26
	C8.69,4.66,8.37,4.91,8.13,5.22c-0.24,0.31-0.35,0.64-0.35,1h1.46c0-0.26,0.11-0.47,0.32-0.63c0.21-0.17,0.48-0.25,0.82-0.25
	c0.38,0,0.67,0.1,0.86,0.3c0.19,0.2,0.28,0.47,0.28,0.81v0.43h-0.89c-0.96,0-1.69,0.19-2.2,0.55C7.9,7.79,7.64,8.32,7.64,9.01
	c0,0.55,0.21,1.01,0.62,1.38c0.41,0.37,0.94,0.56,1.6,0.56s1.24-0.24,1.7-0.73c0.05,0.28,0.1,0.48,0.17,0.61H13.21L13.21,10.83z
	 M9.38,9.53C9.19,9.37,9.1,9.14,9.1,8.86c0-0.34,0.14-0.61,0.41-0.8c0.27-0.19,0.68-0.28,1.22-0.28h0.79v1.22
	c-0.13,0.24-0.32,0.42-0.57,0.56c-0.25,0.14-0.52,0.21-0.81,0.21C9.81,9.78,9.56,9.7,9.38,9.53L9.38,9.53z"/>
</svg>
